<svg id="OBJECTS" xmlns="http://www.w3.org/2000/svg" xmlns:xlink="http://www.w3.org/1999/xlink" viewBox="0 0 710.43 461.05"><defs><style>.cls-1,.cls-15,.cls-17,.cls-18,.cls-20,.cls-21,.cls-30,.cls-33,.cls-36,.cls-40,.cls-43,.cls-44,.cls-45,.cls-46,.cls-47{fill:none;}.cls-10,.cls-2,.cls-3{fill:#d8dffd;}.cls-10,.cls-17,.cls-18,.cls-2,.cls-20,.cls-21,.cls-45,.cls-6{stroke-miterlimit:10;}.cls-18,.cls-2{stroke-width:1.06px;}.cls-2{stroke:url(#Unnamed_Pattern_5);}.cls-4{fill:#b8b8c2;}.cls-5{fill:#fff;}.cls-6{fill:#f4909f;stroke-width:1.04px;stroke:url(#Unnamed_Pattern_5-3);}.cls-7{clip-path:url(#clip-path);}.cls-8{fill:#a9b7f2;}.cls-9{fill:#e9edfd;}.cls-10{stroke-width:0.96px;stroke:url(#Unnamed_Pattern_5-5);}.cls-11{fill:#c9d2fc;}.cls-12{fill:#f16c7b;}.cls-13{fill:#1f275f;}.cls-14{fill:#537eef;}.cls-15{stroke:#312220;stroke-width:0.87px;}.cls-15,.cls-30,.cls-33,.cls-36,.cls-40,.cls-43,.cls-44,.cls-46,.cls-47{stroke-linecap:round;stroke-linejoin:round;}.cls-16{clip-path:url(#clip-path-2);}.cls-17,.cls-33{stroke:#fff;}.cls-17{stroke-width:5.13px;}.cls-18{stroke:url(#Unnamed_Pattern_5-7);}.cls-19{fill:#ac2923;}.cls-20,.cls-21{stroke:#a9b7f2;}.cls-20{stroke-width:1.28px;}.cls-21{stroke-width:1px;}.cls-22{fill:#253a6a;}.cls-23{clip-path:url(#clip-path-3);}.cls-24{clip-path:url(#clip-path-4);}.cls-25{clip-path:url(#clip-path-5);}.cls-26{fill:#bfbfbf;}.cls-27{fill:#272525;}.cls-28{clip-path:url(#clip-path-6);}.cls-29{fill:#5e5e5e;}.cls-30,.cls-47{stroke:#000;}.cls-30{stroke-width:0.79px;}.cls-31{fill:#942d28;}.cls-32{fill:#101010;}.cls-33{stroke-width:1.46px;}.cls-34{fill:#ebb28b;}.cls-35{fill:#98bdfc;}.cls-36,.cls-40,.cls-43,.cls-46{stroke:#171717;}.cls-36{stroke-width:0.64px;}.cls-37{fill:#e9b0a0;}.cls-38{fill:#36438d;}.cls-39{fill:#050907;}.cls-40{stroke-width:0.41px;}.cls-41{fill:#dd8161;}.cls-42{fill:#171717;}.cls-43{stroke-width:0.39px;}.cls-44{stroke:#1e0b07;stroke-width:0.37px;}.cls-45{stroke:#101010;stroke-width:2.87px;}.cls-46{stroke-width:0.61px;}.cls-47{stroke-width:0.98px;}</style><pattern id="Unnamed_Pattern_5" data-name="Unnamed Pattern 5" width="627.46" height="333.12" patternTransform="translate(-612.46 -1148.95) scale(1.06)" patternUnits="userSpaceOnUse" viewBox="0 0 627.46 333.12"><rect class="cls-1" width="627.46" height="333.12"/><path class="cls-3" d="M530.35,331.57s99.38-44.2,97.07-133.37S530.92,67.57,467,122.62,361.66,131.51,328.53,85s-107-105.24-204-78.11C23,35.3-8.27,138.16,1.79,206.8,9,256.1,35.44,297.9,71.46,330q1.76,1.58,3.6,3.1Z"/></pattern><pattern id="Unnamed_Pattern_5-3" data-name="Unnamed Pattern 5" width="627.46" height="333.12" patternTransform="translate(-392.74 -915.04) scale(1.04)" patternUnits="userSpaceOnUse" viewBox="0 0 627.46 333.12"><rect class="cls-1" width="627.46" height="333.12"/><path class="cls-3" d="M530.35,331.57s99.38-44.2,97.07-133.37S530.92,67.57,467,122.62,361.66,131.51,328.53,85s-107-105.24-204-78.11C23,35.3-8.27,138.16,1.79,206.8,9,256.1,35.44,297.9,71.46,330q1.76,1.58,3.6,3.1Z"/></pattern><clipPath id="clip-path" transform="translate(-28.41 -56.57)"><path class="cls-1" d="M606.71,441.25s103.18-45.89,100.78-138.47S607.3,167.15,540.91,224.31s-109.35,9.22-143.75-39.08S286,76,185.38,104.14C79.92,133.65,47.47,240.44,57.92,311.71c7.5,51.19,34.94,94.59,72.33,127.93,1.22,1.09,2.46,2.16,3.74,3.22Z"/></clipPath><pattern id="Unnamed_Pattern_5-5" data-name="Unnamed Pattern 5" width="627.46" height="333.12" patternTransform="translate(177.95 -593.41) scale(0.96)" patternUnits="userSpaceOnUse" viewBox="0 0 627.46 333.12"><rect class="cls-1" width="627.46" height="333.12"/><path class="cls-3" d="M530.35,331.57s99.38-44.2,97.07-133.37S530.92,67.57,467,122.62,361.66,131.51,328.53,85s-107-105.24-204-78.11C23,35.3-8.27,138.16,1.79,206.8,9,256.1,35.44,297.9,71.46,330q1.76,1.58,3.6,3.1Z"/></pattern><clipPath id="clip-path-2" transform="translate(-28.41 -56.57)"><rect class="cls-2" x="474.68" y="161.14" width="131.99" height="98.85"/></clipPath><pattern id="Unnamed_Pattern_5-7" data-name="Unnamed Pattern 5" width="627.46" height="333.12" patternTransform="translate(-640.87 -1205.52) scale(1.06)" patternUnits="userSpaceOnUse" viewBox="0 0 627.46 333.12"><rect class="cls-1" width="627.46" height="333.12"/><path class="cls-3" d="M530.35,331.57s99.38-44.2,97.07-133.37S530.92,67.57,467,122.62,361.66,131.51,328.53,85s-107-105.24-204-78.11C23,35.3-8.27,138.16,1.79,206.8,9,256.1,35.44,297.9,71.46,330q1.76,1.58,3.6,3.1Z"/></pattern><clipPath id="clip-path-3" transform="translate(-28.41 -56.57)"><ellipse class="cls-4" cx="461.56" cy="401.24" rx="15.19" ry="20.6"/></clipPath><clipPath id="clip-path-4" transform="translate(-28.41 -56.57)"><ellipse class="cls-4" cx="235.58" cy="401.24" rx="15.19" ry="20.6"/></clipPath><clipPath id="clip-path-5" transform="translate(-28.41 -56.57)"><path class="cls-5" d="M161.21,409.2V338.46a20.23,20.23,0,0,1,17.4-20.07,206.91,206.91,0,0,1,31.62-2.07S277.39,275,302,275l154.28-.79a129.75,129.75,0,0,1,59.56,13.57L584.56,322l91.35,20s18.93,5.14,23,17.44,2.7,25.81,2.7,25.81H501s-9-28.43-38-28.43-36.77,34.89-35,52.37H276.43s.6-51.84-38.58-50-36.17,50-36.17,50H161.21"/></clipPath><clipPath id="clip-path-6" transform="translate(-28.41 -56.57)"><path d="M427.42,319.17l-61-34.29a34.63,34.63,0,0,0-17-4.44H313.19a49.91,49.91,0,0,0-26.55,7.65L228.72,321a1.85,1.85,0,0,0,.92,3.46H426.05A2.8,2.8,0,0,0,427.42,319.17Z"/></clipPath></defs><path class="cls-6" d="M606.71,441.25s103.18-45.89,100.78-138.47S607.3,167.15,540.91,224.31s-109.35,9.22-143.75-39.08S286,76,185.38,104.14C79.92,133.65,47.47,240.44,57.92,311.71c7.5,51.19,34.94,94.59,72.33,127.93,1.22,1.09,2.46,2.16,3.74,3.22Z" transform="translate(-28.41 -56.57)"/><g class="cls-7"><rect class="cls-8" x="57.72" y="262.45" width="51.21" height="65.9"/><rect class="cls-8" x="372.53" y="228.32" width="89.27" height="89.27"/><rect class="cls-8" x="173.69" y="239.57" width="51.21" height="65.9"/><rect class="cls-8" x="270.58" y="275.23" width="51.21" height="65.9"/><rect class="cls-8" x="6.52" y="301.36" width="669.9" height="86.47"/><rect class="cls-8" x="6.52" y="235.46" width="51.21" height="65.9"/><circle class="cls-9" cx="272.89" cy="231.83" r="33.38" transform="translate(-44.57 386.6) rotate(-76.52)"/><circle class="cls-10" cx="244.48" cy="159.96" r="7.72"/><rect class="cls-11" x="205.48" y="172.53" width="78" height="215.3"/><rect class="cls-8" x="216.05" y="187.95" width="15.51" height="30.52"/><rect class="cls-8" x="255.07" y="187.95" width="15.51" height="30.52"/><rect class="cls-8" x="216.05" y="234.47" width="15.51" height="30.52"/><rect class="cls-8" x="255.07" y="234.47" width="15.51" height="30.52"/><rect class="cls-8" x="216.05" y="281" width="15.51" height="30.52"/><rect class="cls-8" x="255.07" y="281" width="15.51" height="30.52"/><rect class="cls-8" x="216.05" y="327.52" width="15.51" height="30.52"/><rect class="cls-8" x="255.07" y="327.52" width="15.51" height="30.52"/><rect class="cls-12" x="301.85" y="122.77" width="84.83" height="265.06"/><rect class="cls-8" x="310.21" y="141.62" width="11.57" height="11.57"/><rect class="cls-8" x="338.48" y="141.62" width="11.57" height="11.57"/><rect class="cls-8" x="366.75" y="141.62" width="11.57" height="11.57"/><rect class="cls-8" x="310.21" y="162.05" width="11.57" height="11.57"/><rect class="cls-8" x="338.48" y="162.05" width="11.57" height="11.57"/><rect class="cls-8" x="366.75" y="162.05" width="11.57" height="11.57"/><rect class="cls-8" x="310.21" y="182.48" width="11.57" height="11.57"/><rect class="cls-8" x="338.48" y="182.48" width="11.57" height="11.57"/><rect class="cls-8" x="366.75" y="182.48" width="11.57" height="11.57"/><rect class="cls-8" x="310.21" y="202.92" width="11.57" height="11.57"/><rect class="cls-8" x="338.48" y="202.92" width="11.57" height="11.57"/><rect class="cls-8" x="366.75" y="202.92" width="11.57" height="11.57"/><rect class="cls-8" x="310.21" y="223.35" width="11.57" height="11.57"/><rect class="cls-8" x="338.48" y="223.35" width="11.57" height="11.57"/><rect class="cls-8" x="366.75" y="223.35" width="11.57" height="11.57"/><rect class="cls-8" x="310.21" y="243.78" width="11.57" height="11.57"/><rect class="cls-8" x="338.48" y="243.78" width="11.57" height="11.57"/><rect class="cls-8" x="366.75" y="243.78" width="11.57" height="11.57"/><rect class="cls-8" x="310.21" y="264.21" width="11.57" height="11.57"/><rect class="cls-8" x="338.48" y="264.21" width="11.57" height="11.57"/><rect class="cls-8" x="366.75" y="264.21" width="11.57" height="11.57"/><rect class="cls-8" x="310.21" y="284.64" width="11.57" height="11.57"/><rect class="cls-8" x="338.48" y="284.64" width="11.57" height="11.57"/><rect class="cls-8" x="366.75" y="284.64" width="11.57" height="11.57"/><rect class="cls-8" x="310.21" y="305.08" width="11.57" height="11.57"/><rect class="cls-8" x="338.48" y="305.08" width="11.57" height="11.57"/><rect class="cls-8" x="366.75" y="305.08" width="11.57" height="11.57"/><rect class="cls-8" x="310.21" y="325.51" width="11.57" height="11.57"/><rect class="cls-8" x="338.48" y="325.51" width="11.57" height="11.57"/><rect class="cls-8" x="366.75" y="325.51" width="11.57" height="11.57"/><rect class="cls-8" x="310.21" y="345.94" width="11.57" height="11.57"/><rect class="cls-8" x="338.48" y="345.94" width="11.57" height="11.57"/><rect class="cls-8" x="366.75" y="345.94" width="11.57" height="11.57"/><rect class="cls-11" x="572.3" y="195.99" width="84.83" height="265.06"/><rect class="cls-8" x="580.67" y="214.84" width="11.57" height="11.57"/><rect class="cls-8" x="608.93" y="214.84" width="11.57" height="11.57"/><rect class="cls-8" x="637.2" y="214.84" width="11.57" height="11.57"/><rect class="cls-8" x="580.67" y="235.27" width="11.57" height="11.57"/><rect class="cls-8" x="608.93" y="235.27" width="11.57" height="11.57"/><rect class="cls-8" x="637.2" y="235.27" width="11.57" height="11.57"/><rect class="cls-8" x="580.67" y="255.71" width="11.57" height="11.57"/><rect class="cls-8" x="608.93" y="255.71" width="11.57" height="11.57"/><rect class="cls-8" x="637.2" y="255.71" width="11.57" height="11.57"/><rect class="cls-8" x="580.67" y="276.14" width="11.57" height="11.57"/><rect class="cls-8" x="608.93" y="276.14" width="11.57" height="11.57"/><rect class="cls-8" x="637.2" y="276.14" width="11.57" height="11.57"/><rect class="cls-8" x="580.67" y="296.57" width="11.57" height="11.57"/><rect class="cls-8" x="608.93" y="296.57" width="11.57" height="11.57"/><rect class="cls-8" x="637.2" y="296.57" width="11.57" height="11.57"/><rect class="cls-8" x="580.67" y="317" width="11.57" height="11.57"/><rect class="cls-8" x="608.93" y="317" width="11.57" height="11.57"/><rect class="cls-8" x="637.2" y="317" width="11.57" height="11.57"/><rect class="cls-8" x="580.67" y="337.43" width="11.57" height="11.57"/><rect class="cls-8" x="608.93" y="337.43" width="11.57" height="11.57"/><rect class="cls-8" x="637.2" y="337.43" width="11.57" height="11.57"/><rect class="cls-8" x="580.67" y="357.87" width="11.57" height="11.57"/><rect class="cls-8" x="608.93" y="357.87" width="11.57" height="11.57"/><rect class="cls-8" x="637.2" y="357.87" width="11.57" height="11.57"/><rect class="cls-8" x="580.67" y="378.3" width="11.57" height="11.57"/><rect class="cls-8" x="608.93" y="378.3" width="11.57" height="11.57"/><rect class="cls-8" x="637.2" y="378.3" width="11.57" height="11.57"/><rect class="cls-8" x="580.67" y="398.73" width="11.57" height="11.57"/><rect class="cls-8" x="608.93" y="398.73" width="11.57" height="11.57"/><rect class="cls-8" x="637.2" y="398.73" width="11.57" height="11.57"/><rect class="cls-8" x="580.67" y="419.16" width="11.57" height="11.57"/><rect class="cls-8" x="608.93" y="419.16" width="11.57" height="11.57"/><rect class="cls-8" x="637.2" y="419.16" width="11.57" height="11.57"/><rect class="cls-11" x="82" y="122.77" width="104.92" height="265.06"/><rect class="cls-8" x="93.01" y="165.38" width="7.08" height="137.1"/><rect class="cls-8" x="111.97" y="165.38" width="7.08" height="137.1"/><rect class="cls-8" x="130.92" y="165.38" width="7.08" height="137.1"/><rect class="cls-8" x="149.88" y="165.38" width="7.08" height="137.1"/><rect class="cls-8" x="168.83" y="165.38" width="7.08" height="137.1"/><rect class="cls-9" x="82" y="137.43" width="104.92" height="14.66"/></g><rect class="cls-13" x="475.67" y="92.14" width="163.92" height="350.17" rx="25.91" transform="translate(1086.84 477.87) rotate(180)"/><rect class="cls-14" x="458.66" y="92.14" width="163.92" height="350.17" rx="25.91" transform="translate(1052.83 477.87) rotate(180)"/><rect class="cls-5" x="466.58" y="101.63" width="148.08" height="332.83" rx="17.84" transform="translate(1052.83 479.51) rotate(180)"/><path class="cls-14" d="M513.14,97.71h53.74a4.82,4.82,0,0,1,4.82,4.82v7.86a0,0,0,0,1,0,0H508.32a0,0,0,0,1,0,0v-7.86A4.82,4.82,0,0,1,513.14,97.71Z" transform="translate(1051.61 151.53) rotate(180)"/><line class="cls-15" x1="497.03" y1="45.74" x2="521.88" y2="45.74"/><rect class="cls-1" x="446.27" y="113.68" width="131.99" height="80.85"/><rect class="cls-3" x="446.27" y="104.57" width="131.99" height="98.85"/><g class="cls-16"><line class="cls-17" x1="586.57" y1="112.17" x2="422.57" y2="235.99"/><line class="cls-17" x1="625.59" y1="132.62" x2="461.6" y2="256.43"/><line class="cls-17" x1="546.78" y1="92.34" x2="401.81" y2="201.79"/><path class="cls-17" d="M484,151.65,544.79,241a7.22,7.22,0,0,1-1.25,9.52L524,267.33c-8.89,7.68-10.12,16-2.78,25.21l31.48,44.31" transform="translate(-28.41 -56.57)"/></g><rect class="cls-18" x="446.27" y="104.57" width="131.99" height="98.85"/><path class="cls-19" d="M585.26,151.37c0-12.58-13.28-22.06-26.59-15.18a16.6,16.6,0,0,0-5.82,5.69c-3.48,6.3-3.17,12.51-.67,17.42h0l.15.26c.06.12.13.24.2.36l15.26,27.6,15.29-27.65.15-.28.07-.12h0A17.39,17.39,0,0,0,585.26,151.37Z" transform="translate(-28.41 -56.57)"/><circle class="cls-5" cx="567.77" cy="151.19" r="7.75" transform="matrix(0.92, -0.38, 0.38, 0.92, -42.89, 173.36)"/><path class="cls-20" d="M39.8,217.25a5.38,5.38,0,1,1-5.37-5.45A5.41,5.41,0,0,1,39.8,217.25Z" transform="translate(-28.41 -56.57)"/><path class="cls-20" d="M678.57,100.14a5.38,5.38,0,1,1-5.38-5.46A5.42,5.42,0,0,1,678.57,100.14Z" transform="translate(-28.41 -56.57)"/><path class="cls-20" d="M425.64,157.08a5.58,5.58,0,1,1-5.58-5.65A5.62,5.62,0,0,1,425.64,157.08Z" transform="translate(-28.41 -56.57)"/><line class="cls-21" x1="77.27" y1="25.83" x2="116.41" y2="25.83"/><line class="cls-21" x1="655.99" y1="146.39" x2="689.96" y2="146.39"/><line class="cls-21" x1="371" y1="0.5" x2="430.16" y2="0.5"/><path d="M402.07,359.56H384c-17.79,0-32.21,18.66-32.21,41.68s14.42,41.69,32.21,41.69h18.12c17.79,0,32.21-18.66,32.21-41.69S419.86,359.56,402.07,359.56Z" transform="translate(-28.41 -56.57)"/><path d="M628.05,359.56H609.93c-17.79,0-32.21,18.66-32.21,41.68s14.42,41.69,32.21,41.69h18.12c17.79,0,32.21-18.66,32.21-41.69S645.84,359.56,628.05,359.56Z" transform="translate(-28.41 -56.57)"/><rect x="380" y="292.89" width="133.57" height="59.74"/><ellipse cx="453.02" cy="345.53" rx="31.46" ry="40.72"/><polygon points="435.32 386.25 453.02 386.25 471.11 368.15 453.02 304.81 435.32 304.81 435.32 386.25"/><ellipse class="cls-22" cx="435.32" cy="345.53" rx="31.46" ry="40.72"/><ellipse class="cls-4" cx="433.15" cy="344.67" rx="15.19" ry="20.6"/><g class="cls-23"><ellipse class="cls-5" cx="440.22" cy="344.67" rx="15.19" ry="20.6"/></g><rect x="154.02" y="292.89" width="133.57" height="59.74"/><ellipse cx="227.05" cy="345.53" rx="31.46" ry="40.72"/><polygon points="209.35 386.25 227.05 386.25 245.14 368.15 227.05 304.81 209.35 304.81 209.35 386.25"/><ellipse class="cls-22" cx="209.35" cy="345.53" rx="31.46" ry="40.72"/><ellipse class="cls-4" cx="207.17" cy="344.67" rx="15.19" ry="20.6"/><g class="cls-24"><ellipse class="cls-5" cx="214.25" cy="344.67" rx="15.19" ry="20.6"/></g><path class="cls-5" d="M161.21,409.2V338.46a20.23,20.23,0,0,1,17.4-20.07,206.91,206.91,0,0,1,31.62-2.07S277.39,275,302,275l154.28-.79a129.75,129.75,0,0,1,59.56,13.57L584.56,322l91.35,20s18.93,5.14,23,17.44,2.7,25.81,2.7,25.81H501s-9-28.43-38-28.43-36.77,34.89-35,52.37H276.43s.6-51.84-38.58-50-36.17,50-36.17,50H161.21" transform="translate(-28.41 -56.57)"/><g class="cls-25"><polyline class="cls-26" points="396.31 249.43 503.24 306.07 710.43 305.83 528.46 217.66 495.62 258.14 396.31 249.43"/></g><path class="cls-27" d="M162.7,385.26a9.59,9.59,0,0,0-9.58,9.57v4.8a9.57,9.57,0,0,0,9.57,9.57h39s-.2-13.05,3.26-23.94Z" transform="translate(-28.41 -56.57)"/><path class="cls-5" d="M309,198.18h59.87a9,9,0,0,1,9,9v11.26a0,0,0,0,1,0,0H299.94a0,0,0,0,1,0,0V207.21A9,9,0,0,1,309,198.18Z"/><path class="cls-5" d="M320.62,198.18H380.5a9,9,0,0,1,9,9v11.26a0,0,0,0,1,0,0H311.59a0,0,0,0,1,0,0V207.21A9,9,0,0,1,320.62,198.18Z"/><path d="M361.44,261.06h-3.71V259.3h9.5v1.76h-3.71v9.44h-2.08Z" transform="translate(-28.41 -56.57)"/><path d="M376.7,267.91h-5.59L370,270.5h-2.14l5-11.2H375L380,270.5h-2.17Zm-.68-1.63-2.11-4.9-2.1,4.9Z" transform="translate(-28.41 -56.57)"/><path d="M389.12,270.5l-3-4.26-3,4.26h-2.37l4.16-5.71-3.94-5.49h2.36l2.86,4,2.83-4h2.26l-3.92,5.41,4.21,5.79Z" transform="translate(-28.41 -56.57)"/><path d="M394,259.3h2.08v11.2H394Z" transform="translate(-28.41 -56.57)"/><path d="M427.42,319.17l-61-34.29a34.63,34.63,0,0,0-17-4.44H313.19a49.91,49.91,0,0,0-26.55,7.65L228.72,321a1.85,1.85,0,0,0,.92,3.46H426.05A2.8,2.8,0,0,0,427.42,319.17Z" transform="translate(-28.41 -56.57)"/><g class="cls-28"><polygon class="cls-29" points="201.33 221.83 326.47 292.89 376.83 292.89 251.74 221.83 201.33 221.83"/></g><path class="cls-30" d="M228.34,322.39V347s53.19-10.72,58.58,50.24H408.41s-3.25-59.59,19.18-74.12" transform="translate(-28.41 -56.57)"/><path class="cls-30" d="M327.48,324.42s-12.67,5.63-6.53,72.81" transform="translate(-28.41 -56.57)"/><rect x="303.99" y="273.8" width="17.04" height="5.96" rx="2.42"/><rect x="212.29" y="273.8" width="17.04" height="5.96" rx="2.42"/><path d="M389.64,287.38l69.78,37H578.05l-79.81-39a48.76,48.76,0,0,0-21.45-5H391.36A3.68,3.68,0,0,0,389.64,287.38Z" transform="translate(-28.41 -56.57)"/><line class="cls-30" x1="448.34" y1="273.8" x2="558.15" y2="273.8"/><polygon class="cls-29" points="383.82 223.86 461.28 267.85 487.13 267.85 409.69 223.86 383.82 223.86"/><polygon class="cls-29" points="432.07 223.86 509.53 267.85 517.93 267.85 440.5 223.86 432.07 223.86"/><path class="cls-27" d="M689.83,409.2H510.51a9.58,9.58,0,0,1-9.58-9.57l0-14.37H701.59l-.15,12.33A11.61,11.61,0,0,1,689.83,409.2Z" transform="translate(-28.41 -56.57)"/><rect class="cls-5" x="582.32" y="325.72" width="32.55" height="9.85"/><line class="cls-30" x1="543.71" y1="306.08" x2="639.66" y2="306.08"/><line class="cls-30" x1="561.22" y1="313.41" x2="624.28" y2="313.41"/><line class="cls-30" x1="561.22" y1="320.71" x2="624.28" y2="320.71"/><rect class="cls-5" x="499.43" y="302.99" width="54.69" height="18.82" rx="6.41"/><path class="cls-5" d="M699,359.56H667.19a6.41,6.41,0,0,0-6.41,6.41v6a6.4,6.4,0,0,0,6.41,6.4h34.62C702.09,365.74,699.38,360.33,699,359.56Z" transform="translate(-28.41 -56.57)"/><line class="cls-30" x1="499.43" y1="315.4" x2="554.12" y2="315.4"/><line class="cls-30" x1="632.37" y1="315.4" x2="673.19" y2="315.4"/><path class="cls-31" d="M329.76,100.32c0-18.64-19.68-32.69-39.4-22.5a24.62,24.62,0,0,0-8.63,8.43c-5.16,9.34-4.69,18.55-1,25.82h0l.21.38c.09.18.19.36.29.53l22.62,40.9,22.65-41,.23-.42.1-.19h0A25.84,25.84,0,0,0,329.76,100.32Z" transform="translate(-28.41 -56.57)"/><circle class="cls-5" cx="275.43" cy="43.48" r="11.49"/><polygon class="cls-32" points="180.63 365.53 196.81 365.53 223.55 379.83 177.56 379.29 180.63 365.53"/><polygon class="cls-5" points="177.4 385.34 177.56 379.29 223.55 379.83 223.39 385.89 177.4 385.34"/><line class="cls-33" x1="207.98" y1="370.8" x2="202.69" y2="372.24"/><line class="cls-33" x1="202.8" y1="368.14" x2="197.51" y2="369.59"/><polygon class="cls-34" points="198.52 342.73 182.03 342.73 180.63 365.53 197.12 365.53 198.52 342.73"/><polygon class="cls-35" points="209.3 192.91 199.14 358.2 176.19 358.2 180.15 192.91 209.3 192.91"/><polygon class="cls-32" points="143.47 365.53 159.64 365.53 186.38 379.83 140.4 379.29 143.47 365.53"/><polygon class="cls-5" points="140.24 385.34 140.4 379.29 186.38 379.83 186.22 385.89 140.24 385.34"/><line class="cls-33" x1="170.82" y1="370.8" x2="165.52" y2="372.24"/><line class="cls-33" x1="165.64" y1="368.14" x2="160.34" y2="369.59"/><polygon class="cls-34" points="162.99 342.73 146.5 342.73 143.47 365.53 159.95 365.53 162.99 342.73"/><polygon class="cls-35" points="160.7 192.91 138.23 358.2 163.32 358.2 195.98 192.91 160.7 192.91"/><polyline class="cls-36" points="177.97 284.08 190.79 219.18 200.16 213.08"/><line class="cls-36" x1="157.41" y1="217.14" x2="171.42" y2="206.11"/><path class="cls-34" d="M242,186.66l25.54,33.53a8.82,8.82,0,0,1,.42,11.24h0a8.8,8.8,0,0,1-13.25.8L227.3,200.5a10.1,10.1,0,0,1-.28-13.89h0A10.11,10.11,0,0,1,242,186.66Z" transform="translate(-28.41 -56.57)"/><path class="cls-14" d="M229.52,174s12.49,1.55,22,20.08l-14.69,17.6Z" transform="translate(-28.41 -56.57)"/><polygon class="cls-34" points="221.65 165 256.66 143.04 263.62 150.24 238.25 176.24 221.65 165"/><path class="cls-34" d="M290.67,185.9,308,191s0,13.45-16,15.89c-.88.13-4.82-1.38-5.49-2l-2.67-7.6a3.25,3.25,0,0,1,.19-4.14Z" transform="translate(-28.41 -56.57)"/><path class="cls-37" d="M289.24,188.13l6.14-8.06a2.51,2.51,0,0,1,3.5-.53h0a2.57,2.57,0,0,1,.37,3.45l-5.67,8.84Z" transform="translate(-28.41 -56.57)"/><path class="cls-37" d="M296.66,194.57l7.38-7.28a2.38,2.38,0,0,1,3.4-.24h0a2.56,2.56,0,0,1-.12,3.4l-7,8.08Z" transform="translate(-28.41 -56.57)"/><path class="cls-37" d="M293.82,189.59l7-6.88a2.45,2.45,0,0,1,3.51-.1h0a2.63,2.63,0,0,1,0,3.5l-6.6,7.73Z" transform="translate(-28.41 -56.57)"/><polygon class="cls-38" points="277.14 111.88 279.9 112.06 279.9 130.2 270.2 145.38 267.26 145.14 272.46 126.06 277.14 111.88"/><path class="cls-39" d="M289.29,193.63l8.11,7.64a1.83,1.83,0,0,0,2.87,0l17.65-22a1.53,1.53,0,0,0,0-1.89l-8.51-8.13a1.52,1.52,0,0,0-2.39,0l-17.74,22.14A1.83,1.83,0,0,0,289.29,193.63Z" transform="translate(-28.41 -56.57)"/><path class="cls-5" d="M286.6,193.45l8.1,7.64a1.84,1.84,0,0,0,2.88,0l17.64-22a1.52,1.52,0,0,0,0-1.89l-8.5-8.13a1.52,1.52,0,0,0-2.39,0l-17.74,22.14A1.83,1.83,0,0,0,286.6,193.45Z" transform="translate(-28.41 -56.57)"/><path class="cls-34" d="M285.73,199.74a7,7,0,0,1-2.9-6.69,21.14,21.14,0,0,1,3.1-8.67c.85-1.59,1.83-2.36,3.21-2.17h0a2.62,2.62,0,0,1,2.18,2.9l-1.56,3.45s1.71,4.36-1.87,11Z" transform="translate(-28.41 -56.57)"/><path class="cls-14" d="M206,170.39s-9.44,2.21-16.18,5.6c-4.23,2.14-4.7,6.76-4.17,11.48l3.42,62h48.6l3.4-59.91c.47-6.58-3.39-13-9.63-15.14-7-2.37-11.4-4.64-15.12-4.85Z" transform="translate(-28.41 -56.57)"/><line class="cls-36" x1="211.67" y1="151.22" x2="212.7" y2="132.99"/><path class="cls-34" d="M206,170.39l-5.61,1.54s4.17,8,19.28,6.66c10.61-1,6.34-6.13,6.34-6.13l-5.28-1.91Z" transform="translate(-28.41 -56.57)"/><polygon class="cls-34" points="131.7 149.42 156.8 186.37 150.04 193.76 122.33 166.62 131.7 149.42"/><path class="cls-34" d="M208.27,244.63l-10.74-5.46,1.05-2.36a2.08,2.08,0,0,0-3.17-2.5l-10.57,8.3-6.39,7.73c5.79,5,9.58,4.9,11.77,3.94.25.09.51.18.76.25l8.93,2.56a1.7,1.7,0,0,0,2.19-.79c.29-.58.39-1.52-1.32-2.39l1.71.87a1.76,1.76,0,0,0,2.3-.86c.38-.76-.09-1.76-1.1-2.42L205,252a1.82,1.82,0,0,0,2.43-1.07,1.9,1.9,0,0,0-1-2.26l-1.9-1,2.25.55a2,2,0,0,0,2.54-1.28A2,2,0,0,0,208.27,244.63Z" transform="translate(-28.41 -56.57)"/><line class="cls-40" x1="176.72" y1="191.43" x2="170.37" y2="188.44"/><line class="cls-40" x1="175.01" y1="194.82" x2="168.89" y2="192.27"/><line class="cls-40" x1="172.94" y1="197.56" x2="167.75" y2="195.52"/><path class="cls-34" d="M195.31,195.81l-31.92,27.53a8.8,8.8,0,0,1-11.18,1.1h0a8.8,8.8,0,0,1-1.61-13.17l30-29.33a10.11,10.11,0,0,1,13.84-1.12h0A10.11,10.11,0,0,1,195.31,195.81Z" transform="translate(-28.41 -56.57)"/><path class="cls-14" d="M196.75,173.14s-16.66,3.25-30.32,20.57l14.48,18.88,20.76-14.87Z" transform="translate(-28.41 -56.57)"/><line class="cls-36" x1="159.55" y1="150.97" x2="171.59" y2="142.35"/><path class="cls-13" d="M231.85,118.33s5.63,5,1,16.3l-7.72-15.23Z" transform="translate(-28.41 -56.57)"/><path class="cls-13" d="M200.35,119.69s-6.56-.72-8,9.41,5.95,16.18,14.21,21.08Z" transform="translate(-28.41 -56.57)"/><ellipse class="cls-13" cx="185.64" cy="76.06" rx="18.84" ry="19.28"/><circle class="cls-41" cx="230.75" cy="139.41" r="4.78" transform="translate(-25.01 227.74) rotate(-63.65)"/><polygon class="cls-34" points="192.45 95.46 192.73 116.25 177.22 113.69 178.34 83.86 192.45 95.46"/><polygon class="cls-42" points="192.6 105.99 181.7 95.34 192.94 97.31 192.6 105.99"/><path class="cls-34" d="M230.64,123.37s4.19,16.75,2.3,23.19-6.89,10.6-15.23,9.23c0,0-9.62-.19-12.46-14.37C201,120.07,220.29,112.25,230.64,123.37Z" transform="translate(-28.41 -56.57)"/><path class="cls-13" d="M207.94,141.41s6.16-14.14-.53-16.9c-2-.83-3.18-1.25-4.13,5.84s1.53,8.25,1.53,8.25Z" transform="translate(-28.41 -56.57)"/><path class="cls-34" d="M199.43,143a4.94,4.94,0,1,0,3.1-6.25A4.93,4.93,0,0,0,199.43,143Z" transform="translate(-28.41 -56.57)"/><path class="cls-43" d="M201.84,140.08a3.62,3.62,0,0,1,4.67,2.81" transform="translate(-28.41 -56.57)"/><path class="cls-44" d="M227.19,139.54l1.08,3.61a.52.52,0,0,1-.39.6l-1.21.19" transform="translate(-28.41 -56.57)"/><path class="cls-42" d="M219.65,138.4a1.2,1.2,0,1,0,1.27-1.12A1.2,1.2,0,0,0,219.65,138.4Z" transform="translate(-28.41 -56.57)"/><path class="cls-42" d="M229.64,138.13a1.11,1.11,0,1,0,1.17-1A1.12,1.12,0,0,0,229.64,138.13Z" transform="translate(-28.41 -56.57)"/><path class="cls-42" d="M223.1,130.31l-9,2.88a10.81,10.81,0,0,1,4.59-3.56A4.88,4.88,0,0,1,223.1,130.31Z" transform="translate(-28.41 -56.57)"/><path class="cls-42" d="M228.15,130.1l4.74,1.53s-.82-2-2.19-2.46A2.74,2.74,0,0,0,228.15,130.1Z" transform="translate(-28.41 -56.57)"/><path class="cls-5" d="M220.84,144.84a16.92,16.92,0,0,0,6.63,1.69S223,149.8,220.84,144.84Z" transform="translate(-28.41 -56.57)"/><path class="cls-13" d="M205.41,124.67s5,4.32,17.4,1.82,12.88-10.9,11.39-13.85c0,0-4.56,3.54-12.08,1.6-4.19-1.08-13.55-5-19.17-.8a6.43,6.43,0,0,0-2.6,6.25C200.71,121.53,201.94,123.63,205.41,124.67Z" transform="translate(-28.41 -56.57)"/><path class="cls-45" d="M100.83,205.86h7.25a12.51,12.51,0,0,1,12.51,12.51v69.12a0,0,0,0,1,0,0H88.32a0,0,0,0,1,0,0V218.37A12.51,12.51,0,0,1,100.83,205.86Z"/><circle class="cls-32" cx="116.35" cy="434.97" r="7.49" transform="translate(-362.11 392.04) rotate(-76.76)"/><circle class="cls-32" cx="149.37" cy="434.97" r="7.49" transform="translate(-292.23 176.45) rotate(-45)"/><rect class="cls-14" x="65.6" y="263.75" width="77.71" height="112.89" rx="13.24"/><rect class="cls-46" x="78.93" y="281.6" width="2.84" height="78.03"/><rect class="cls-46" x="94.02" y="281.6" width="2.84" height="78.03"/><rect class="cls-46" x="109.11" y="281.6" width="2.84" height="78.03"/><rect class="cls-46" x="124.2" y="281.6" width="2.84" height="78.03"/><line class="cls-47" x1="16.82" y1="385.84" x2="692.54" y2="385.84"/></svg>